# xmcd
#
# Track frame offsets:
#	150
#	12201
#	25769
#	36011
#	47717
#	59921
#	71865
#	83139
#	94588
#	102593
#	110668
#	122913
#	133995
#	144597
#	154199
#	164854
#	175705
#	186090
#	196306
#	209085
#	222549
#	235404
#	247956
#	259452
#	269298
#	281085
#	291314
#	303563
#	317356
#	327518
#
# Disc length: 4521 seconds
#
# Revision: 0
# Processed by: cddbd v1.5.2PL0 Copyright (c) Steve Scherf et al.
# Submitted via: EasyCDDAExtractor 10.2.0.1
#
DISCID=e311a71e
DTITLE=Various Artist - Crescent City Bounce, From Blues To R&B In New Orlean
DTITLE=s - Disc B (1951-56)
DYEAR=2007
DGENRE=Blues
TTITLE0=Tommy Ridgley - Boogie Woogie Mama
TTITLE1=Tommy Ridgley - Shrewsbury Blues
TTITLE2=Tommy Ridgley - Early Dawn Boogie
TTITLE3=Tommy Ridgley - Lonely Man Blues
TTITLE4=Tommy Ridgley - Anything But Love
TTITLE5=Tommy Ridgley - Once In A Lifetime
TTITLE6=Tommy Ridgley - Come Home, Baby
TTITLE7=Tommy Ridgley - Tra La La
TTITLE8=Tommy Ridgley - Got You On My Mind
TTITLE9=Tommy Ridgley - Booted
TTITLE10=Tommy Ridgley - Lavinia
TTITLE11=Tommy Ridgley - I Live My Life
TTITLE12=Tommy Ridgley - Good Times
TTITLE13=Tommy Ridgley - A Day Is Coming
TTITLE14=Tommy Ridgley - Looped
TTITLE15=Tommy Ridgley - Junie Mae
TTITLE16=Tommy Ridgley - Monkey Man
TTITLE17=Tommy Ridgley - Nobody Cares
TTITLE18=Tommy Ridgley - Ooh! Lawdy My Baby
TTITLE19=Tommy Ridgley - I'm Gonna Cross That River
TTITLE20=Tommy Ridgley - Wish I Had Never
TTITLE21=Tommy Ridgley - Jam Up
TTITLE22=Ernest Kador - No Money
TTITLE23=Ernest Kador - Do, Baby, Do
TTITLE24=Ernest Kador - You Never Miss A Good Woman
TTITLE25=Ernest Kador - So Glad You're Mine
TTITLE26=Billy Tate - Ohh! Ooh! Baby
TTITLE27=Billy Tate - Cryin' In the Morning
TTITLE28=Billy Tate - Single Life
TTITLE29=Billy Tate - You Told Me
EXTD=
EXTT0=
EXTT1=
EXTT2=
EXTT3=
EXTT4=
EXTT5=
EXTT6=
EXTT7=
EXTT8=
EXTT9=
EXTT10=
EXTT11=
EXTT12=
EXTT13=
EXTT14=
EXTT15=
EXTT16=
EXTT17=
EXTT18=
EXTT19=
EXTT20=
EXTT21=
EXTT22=
EXTT23=
EXTT24=
EXTT25=
EXTT26=
EXTT27=
EXTT28=
EXTT29=
PLAYORDER=
